<svg version="1.1" id="Layer_1" xmlns="http://www.w3.org/2000/svg" xmlns:xlink="http://www.w3.org/1999/xlink" x="0px" y="0px"
	 width="100%" viewBox="0 0 300 240" enable-background="new 0 0 300 240" xml:space="preserve">
<path fill="#2B114A" opacity="1.000000" stroke="none" 
	d="
M159.000000,241.000000 
	C106.000008,241.000000 53.500011,241.000000 1.000014,241.000000 
	C1.000009,161.000015 1.000009,81.000031 1.000005,1.000036 
	C100.999969,1.000024 200.999939,1.000024 300.999939,1.000012 
	C300.999939,80.999962 300.999939,160.999924 300.999969,240.999939 
	C253.833328,241.000000 206.666672,241.000000 159.000000,241.000000 
M128.707230,125.754257 
	C131.417603,126.363968 134.127991,126.973679 137.472824,127.886230 
	C140.306122,128.533096 143.139435,129.179962 146.694290,130.087418 
	C149.787582,130.767059 152.880875,131.446701 156.591721,132.488922 
	C159.722305,131.611313 162.852890,130.733719 166.697266,129.743088 
	C170.146271,128.227142 173.595291,126.711189 177.775574,125.064110 
	C180.176590,124.009514 182.577606,122.954926 185.699570,121.802567 
	C189.795319,120.050041 193.891083,118.297523 197.986832,116.544998 
	C197.918121,115.997284 197.849426,115.449562 197.780716,114.901840 
	C192.924240,114.151520 188.067749,113.401199 183.211258,112.650879 
	C183.153946,113.028160 183.096634,113.405449 183.039322,113.782730 
	C185.604736,114.484749 188.170151,115.186768 191.722321,116.158806 
	C188.802475,117.536484 186.903656,118.432426 184.333313,119.498306 
	C181.821777,120.495857 179.310226,121.493408 176.051453,122.682411 
	C172.686264,124.064804 169.321091,125.447197 165.186798,126.943344 
	C162.142624,127.578743 159.098465,128.214142 155.435471,128.502289 
	C152.283188,127.686172 149.130905,126.870049 145.300720,125.748070 
	C142.523010,125.166191 139.745300,124.584312 136.226669,123.891350 
	C133.507599,123.071709 130.788513,122.252068 127.448517,121.137985 
	C125.353615,120.616051 123.258720,120.094109 120.736977,118.995827 
	C119.687881,115.595070 118.638779,112.194305 117.491898,108.087029 
	C116.139534,102.655136 114.787163,97.223236 113.353371,91.026215 
	C112.043083,85.563705 110.732796,80.101196 109.349068,74.332520 
	C111.758324,74.075722 113.374367,73.903465 115.905647,73.866356 
	C119.909546,73.787773 123.913445,73.709183 128.848419,73.787430 
	C133.550964,73.648643 138.253510,73.509857 143.847702,73.546143 
	C152.669342,73.777939 153.167923,74.169571 152.828384,81.448669 
	C151.837631,83.206055 150.846863,84.963440 149.110275,86.812737 
	C144.524948,88.878235 143.488525,91.189842 144.961426,94.540527 
	C143.673767,95.812866 141.372116,97.012352 141.274567,98.370193 
	C140.859894,104.142090 141.098434,109.960915 141.098434,115.395676 
	C145.295609,111.098900 149.207794,107.093872 153.763397,102.976288 
	C154.896057,102.362778 156.028717,101.749260 157.789169,101.069618 
	C158.521713,100.680748 159.254242,100.291878 160.715302,100.016907 
	C162.449692,98.701004 164.184067,97.385101 166.312759,95.515892 
	C167.622772,95.202972 168.932785,94.890060 170.931213,94.483177 
	C171.968979,94.023239 173.006744,93.563301 174.730576,92.975204 
	C176.529480,91.777313 178.328384,90.579422 180.618652,89.054314 
	C179.091019,88.068146 178.205673,87.496620 177.509415,86.412025 
	C178.019089,86.218086 178.528778,86.024139 179.702698,85.772865 
	C181.198975,84.880852 182.695267,83.988846 184.802322,82.850647 
	C185.588272,81.602020 186.374222,80.353386 187.515350,78.472427 
	C190.539047,73.250648 190.273300,67.683990 189.879868,61.615582 
	C185.901978,66.103218 182.417725,70.033966 178.394272,74.117081 
	C177.857681,74.623901 177.321075,75.130722 176.174255,75.895226 
	C174.971573,76.852638 173.768890,77.810051 172.012054,78.916512 
	C171.239944,79.470726 170.467834,80.024940 169.087158,80.798195 
	C168.023209,81.486031 166.959244,82.173866 165.300293,83.123024 
	C164.083084,84.046547 162.865875,84.970070 161.046890,86.114548 
	C159.265076,87.683670 157.483246,89.252785 155.169128,91.052948 
	C154.643723,91.606621 154.118317,92.160286 153.112488,92.991127 
	C152.638687,93.555092 152.164871,94.119057 151.149689,95.005104 
	C150.080185,96.300438 149.010681,97.595772 147.424805,99.115387 
	C147.130524,99.588989 146.836243,100.062592 145.780014,99.910927 
	C145.525330,99.703392 145.270630,99.495857 145.143784,98.653534 
	C145.840225,97.105637 146.536667,95.557739 148.014725,93.905037 
	C149.387375,92.290176 150.760025,90.675323 152.722916,88.764099 
	C154.481613,87.504333 156.240295,86.244560 158.605682,84.787102 
	C159.967667,83.821449 161.329666,82.855804 163.326675,81.626862 
	C165.002106,80.462830 166.677536,79.298798 168.981796,77.942390 
	C171.096512,76.199532 173.211227,74.456673 175.325928,72.713814 
	C174.888062,72.107353 174.450180,71.500885 174.012314,70.894424 
	C171.388794,72.543571 168.765274,74.192711 165.379974,75.656990 
	C163.167313,76.287682 160.954666,76.918373 158.008652,77.755852 
	C157.110931,76.869576 155.583145,76.082497 155.425278,75.079750 
	C154.765076,70.886299 152.382050,69.497612 148.435165,69.854904 
	C146.619171,70.019295 144.780975,69.938438 142.082626,69.820961 
	C137.356003,69.766632 132.629395,69.712303 127.011230,69.452820 
	C123.002953,69.395607 118.994675,69.338387 114.099014,69.130974 
	C112.610909,69.094818 111.122841,69.029160 109.634697,69.027794 
	C104.257133,69.022881 103.318710,70.104240 104.618744,75.146568 
	C106.253487,81.487099 108.021248,87.793335 109.772278,94.934570 
	C111.192825,100.286278 112.613380,105.637978 114.010193,111.795395 
	C114.527473,113.854019 115.125008,115.896500 115.543182,117.975060 
	C116.167473,121.078171 117.247177,123.665802 121.678032,124.045273 
	C123.773483,124.488281 125.868935,124.931290 128.707230,125.754257 
M126.038689,77.309196 
	C122.454315,77.309196 118.869942,77.309196 114.522118,77.309196 
	C116.990791,87.235733 119.175179,96.019142 121.535759,105.511032 
	C123.950798,97.659843 126.024628,90.917877 128.720673,83.920525 
	C130.978531,81.801750 133.236389,79.682976 136.234772,76.869308 
	C132.409241,77.094582 129.663757,77.256264 126.038689,77.309196 
M65.228882,157.228165 
	C66.036186,157.491913 67.200516,157.503693 67.593185,158.060059 
	C70.253502,161.829376 71.886711,161.760574 74.146019,157.629089 
	C74.524620,156.936768 74.983025,156.288086 75.712891,155.130020 
	C76.015953,156.321930 76.035248,157.002670 76.347069,157.499969 
	C77.023926,158.579422 77.850243,159.565155 78.615463,160.589218 
	C79.137672,159.531036 80.060814,158.491211 80.110321,157.411362 
	C80.291588,153.457169 80.182098,149.489639 80.182098,145.182816 
	C72.250603,144.213791 74.630058,152.562805 70.690155,154.698410 
	C64.694496,145.121002 64.694496,145.121002 61.287811,145.668472 
	C61.287811,149.719910 61.187870,153.859543 61.367271,157.987045 
	C61.405830,158.874023 62.454018,159.717133 63.037121,160.580444 
	C63.742622,159.715652 64.448120,158.850861 65.228882,157.228165 
M236.755432,145.182968 
	C235.429550,145.093658 233.969666,144.608765 232.807419,145.002502 
	C230.778397,145.689896 227.954361,146.486816 227.271988,148.034958 
	C226.518097,149.745316 227.797089,152.351715 228.291321,155.134521 
	C228.182373,155.398102 227.018799,156.807098 227.259003,157.910538 
	C227.847778,160.615250 233.672592,161.844925 237.499725,160.269012 
	C241.182053,158.752731 241.216522,156.065292 239.816833,152.886826 
	C239.462173,152.081467 239.518753,151.104431 239.240936,150.253769 
	C238.715897,148.646133 238.085388,147.072937 236.755432,145.182968 
M141.970520,144.970566 
	C138.401581,145.041885 134.204224,143.988617 133.161819,149.139038 
	C132.599808,151.915848 136.132889,154.631088 133.472900,157.557388 
	C135.037720,158.627304 136.623550,160.604233 138.162781,160.568573 
	C140.928146,160.504547 143.886276,159.616272 146.284073,158.237793 
	C147.032227,157.807693 146.331955,154.676971 146.097046,152.807358 
	C146.003281,152.061050 144.881027,150.942749 145.063507,150.737473 
	C148.222244,147.184341 145.113647,146.297546 141.970520,144.970566 
M188.274765,152.494202 
	C188.292679,154.480316 188.159073,156.485428 188.404343,158.443054 
	C188.500198,159.208115 189.447388,159.866516 190.006836,160.573486 
	C190.719406,159.898300 191.591248,159.323410 192.098022,158.518616 
	C192.568634,157.771255 192.649689,156.778595 193.044342,155.396255 
	C195.720276,157.457962 197.990158,159.206818 200.350464,161.025330 
	C200.350464,157.910141 199.759506,155.745270 200.455460,154.137466 
	C203.094955,148.039734 201.328766,145.076401 194.560867,144.985428 
	C192.648254,144.959702 190.735001,144.981491 188.275024,144.981491 
	C188.275024,147.666138 188.275024,149.618408 188.274765,152.494202 
M93.894432,157.941559 
	C94.592720,158.812225 95.291008,159.682892 95.989304,160.553558 
	C96.576881,159.696487 97.522240,158.897919 97.673973,157.969604 
	C97.949242,156.285492 97.752037,154.524170 97.752037,152.795074 
	C98.166885,152.678543 98.581734,152.562012 98.996582,152.445496 
	C100.354805,154.632645 101.518486,156.982758 103.155060,158.936768 
	C103.948502,159.884109 105.758430,160.681961 106.864983,160.439163 
	C107.722595,160.250977 108.643456,158.385498 108.761932,157.188950 
	C109.039215,154.388626 109.069489,151.517578 108.753723,148.725616 
	C108.609619,147.451462 107.411163,146.296524 106.690926,145.087524 
	C106.106110,146.227158 105.275597,147.310577 104.998810,148.520645 
	C104.654335,150.026642 104.767044,151.637177 104.669373,153.441910 
	C100.367188,151.429947 101.165390,143.451904 93.883347,145.479202 
	C93.883347,149.446655 93.883347,153.249695 93.894432,157.941559 
M113.675476,155.212189 
	C114.208984,156.996628 114.811455,160.339432 115.265114,160.319351 
	C118.948593,160.156357 123.335075,160.366119 126.014069,158.413498 
	C127.832413,157.088181 128.003967,152.342773 127.543678,149.336365 
	C126.924225,145.290375 123.060799,145.060120 119.634949,145.010452 
	C117.836594,144.984390 116.037544,145.005859 113.675148,145.005859 
	C113.675148,148.403595 113.675148,151.361084 113.675476,155.212189 
M219.541275,145.377228 
	C216.784286,146.291031 214.027283,147.204834 211.568344,148.019836 
	C210.590561,147.119232 209.334641,145.962418 208.078720,144.805618 
	C206.892471,149.082413 206.697845,152.399841 206.973724,155.677658 
	C207.113846,157.342697 208.101501,158.936401 208.706009,160.562363 
	C209.487305,158.991959 210.252716,157.413223 211.067444,155.860367 
	C211.185898,155.634628 211.540192,155.532654 211.786636,155.374786 
	C214.884552,156.439056 215.745407,162.116272 221.070633,159.993774 
	C218.610001,157.012360 216.530960,154.493286 214.358932,151.861557 
	C216.233231,149.753754 217.863388,147.920486 219.541275,145.377228 
M175.556473,157.876144 
	C177.860214,158.803589 180.163956,159.731033 183.727707,161.165741 
	C181.575912,155.513931 180.112595,151.141190 178.245743,146.948105 
	C176.942307,144.020508 174.430969,144.034332 173.128525,146.675415 
	C171.041489,150.907425 169.675079,155.494827 168.004074,159.932007 
	C168.295502,160.225327 168.586914,160.518661 168.878342,160.811981 
	C170.839340,159.837189 172.800323,158.862381 175.556473,157.876144 
M151.968872,154.339981 
	C151.970474,155.335114 151.785629,156.377274 152.021683,157.313278 
	C152.306290,158.441895 152.948151,159.480438 153.435364,160.557968 
	C154.284546,159.627243 155.171692,158.727448 155.966293,157.752258 
	C156.342102,157.291061 156.540771,156.685562 156.749863,156.280670 
	C163.824249,155.862122 165.612915,154.422363 165.124420,149.764252 
	C164.644852,145.191315 161.110870,144.020081 151.968872,145.686829 
	C151.968872,148.187073 151.968872,150.796082 151.968872,154.339981 
M88.785263,159.654007 
	C88.853081,155.664978 88.985390,151.675140 88.936142,147.687561 
	C88.925873,146.856262 88.434479,145.794174 87.803688,145.292526 
	C87.399620,144.971191 85.661896,145.479370 85.661255,145.620865 
	C85.639069,150.500168 85.746231,155.380386 85.946892,160.255859 
	C85.948837,160.303070 87.450500,160.288544 88.785263,159.654007 
M184.721161,170.964828 
	C182.102097,171.609055 179.483047,172.253296 176.646820,172.950958 
	C176.646820,173.763489 176.646820,175.470718 176.646820,178.370117 
	C179.755630,172.919907 181.942963,175.298996 184.871414,179.312607 
	C184.871414,175.733932 184.871414,173.677170 184.721161,170.964828 
M211.242950,170.251419 
	C209.454224,170.076675 206.190277,169.494034 206.108139,169.791153 
	C205.395538,172.368362 205.254471,175.103607 204.943329,177.791809 
	C206.904968,176.557983 207.893585,175.399796 208.833328,174.203232 
	C209.744919,173.042557 210.606323,171.842453 211.242950,170.251419 
M161.948380,111.250992 
	C166.388626,111.250992 170.828857,111.250992 176.501175,111.250992 
	C170.612579,109.201157 165.887177,107.940666 160.906219,110.089035 
	C160.846680,110.114708 161.134537,110.945801 161.948380,111.250992 
M110.330956,172.552368 
	C110.996742,173.381821 111.662529,174.211273 112.328316,175.040726 
	C112.805046,174.594681 113.281776,174.148621 113.758507,173.702576 
	C112.455727,172.376526 111.152946,171.050491 109.850166,169.724442 
	C109.493935,170.067520 109.137711,170.410599 108.781479,170.753662 
	C109.189934,171.211212 109.598381,171.668747 110.330956,172.552368 
M104.571892,171.975510 
	C104.344666,171.896423 104.117447,171.817352 103.890221,171.738281 
	C103.861374,172.018234 103.832535,172.298203 103.803696,172.578156 
	C104.046722,172.465500 104.289749,172.352844 104.571892,171.975510 
M105.020912,177.499481 
	C105.020912,177.499481 104.992599,177.528778 105.020912,177.499481 
M108.004135,177.464142 
	C108.004135,177.464142 108.020775,177.518112 108.004135,177.464142 
M110.496544,178.463928 
	C110.496544,178.463928 110.516197,178.515045 110.496544,178.463928 
z"/>
<path fill="#D15B80" opacity="1.000000" stroke="none" 
	d="
M65.191254,157.607117 
	C64.448120,158.850861 63.742622,159.715652 63.037117,160.580444 
	C62.454018,159.717133 61.405830,158.874023 61.367271,157.987045 
	C61.187870,153.859543 61.287811,149.719910 61.287811,145.668472 
	C64.694496,145.121002 64.694496,145.121002 70.690216,154.698471 
	C74.630058,152.562805 72.250603,144.213791 80.182098,145.182816 
	C80.182098,149.489639 80.291588,153.457169 80.110321,157.411362 
	C80.060814,158.491211 79.137672,159.531036 78.615463,160.589218 
	C77.850243,159.565155 77.023926,158.579422 76.347069,157.499969 
	C76.035248,157.002670 76.015953,156.321930 75.712891,155.130020 
	C74.983025,156.288086 74.524620,156.936768 74.146019,157.629089 
	C71.886711,161.760574 70.253502,161.829376 67.593185,158.060059 
	C67.200516,157.503693 66.036186,157.491913 65.191254,157.607117 
z"/>
<path fill="#D66189" opacity="1.000000" stroke="none" 
	d="
M128.098465,84.175911 
	C126.024628,90.917877 123.950798,97.659843 121.535759,105.511032 
	C119.175179,96.019142 116.990791,87.235733 114.522118,77.309196 
	C118.869942,77.309196 122.454315,77.309196 126.505707,77.745193 
	C127.347969,80.179428 127.723213,82.177673 128.098465,84.175911 
z"/>
<path fill="#D15B80" opacity="1.000000" stroke="none" 
	d="
M237.127060,145.334198 
	C238.085388,147.072937 238.715897,148.646133 239.240936,150.253769 
	C239.518753,151.104431 239.462173,152.081467 239.816833,152.886826 
	C241.216522,156.065292 241.182053,158.752731 237.499725,160.269012 
	C233.672592,161.844925 227.847778,160.615250 227.259003,157.910538 
	C227.018799,156.807098 228.182373,155.398102 228.291321,155.134521 
	C227.797089,152.351715 226.518097,149.745316 227.271988,148.034958 
	C227.954361,146.486816 230.778397,145.689896 232.807419,145.002502 
	C233.969666,144.608765 235.429550,145.093658 237.127060,145.334198 
z"/>
<path fill="#D15B80" opacity="1.000000" stroke="none" 
	d="
M142.364471,145.022125 
	C145.113647,146.297546 148.222244,147.184341 145.063507,150.737473 
	C144.881027,150.942749 146.003281,152.061050 146.097046,152.807358 
	C146.331955,154.676971 147.032227,157.807693 146.284073,158.237793 
	C143.886276,159.616272 140.928146,160.504547 138.162781,160.568573 
	C136.623550,160.604233 135.037720,158.627304 133.472900,157.557388 
	C136.132889,154.631088 132.599808,151.915848 133.161819,149.139038 
	C134.204224,143.988617 138.401581,145.041885 142.364471,145.022125 
z"/>
<path fill="#CD597F" opacity="1.000000" stroke="none" 
	d="
M188.274902,152.032440 
	C188.275024,149.618408 188.275024,147.666138 188.275024,144.981491 
	C190.735001,144.981491 192.648254,144.959702 194.560867,144.985428 
	C201.328766,145.076401 203.094955,148.039734 200.455460,154.137466 
	C199.759506,155.745270 200.350464,157.910141 200.350464,161.025330 
	C197.990158,159.206818 195.720276,157.457962 193.044342,155.396255 
	C192.649689,156.778595 192.568634,157.771255 192.098022,158.518616 
	C191.591248,159.323410 190.719406,159.898300 190.006836,160.573486 
	C189.447388,159.866516 188.500198,159.208115 188.404343,158.443054 
	C188.159073,156.485428 188.292679,154.480316 188.274902,152.032440 
z"/>
<path fill="#D15B80" opacity="1.000000" stroke="none" 
	d="
M93.888885,157.497147 
	C93.883347,153.249695 93.883347,149.446655 93.883347,145.479202 
	C101.165390,143.451904 100.367188,151.429947 104.669373,153.441910 
	C104.767044,151.637177 104.654335,150.026642 104.998810,148.520645 
	C105.275597,147.310577 106.106110,146.227158 106.690918,145.087524 
	C107.411163,146.296524 108.609619,147.451462 108.753723,148.725616 
	C109.069489,151.517578 109.039215,154.388626 108.761932,157.188950 
	C108.643456,158.385498 107.722595,160.250977 106.864983,160.439163 
	C105.758430,160.681961 103.948502,159.884109 103.155060,158.936768 
	C101.518486,156.982758 100.354805,154.632645 98.996582,152.445496 
	C98.581734,152.562012 98.166885,152.678543 97.752037,152.795074 
	C97.752037,154.524170 97.949242,156.285492 97.673973,157.969604 
	C97.522240,158.897919 96.576881,159.696487 95.989304,160.553558 
	C95.291008,159.682892 94.592720,158.812225 93.888885,157.497147 
z"/>
<path fill="#D45C81" opacity="1.000000" stroke="none" 
	d="
M113.675308,154.765381 
	C113.675148,151.361084 113.675148,148.403595 113.675148,145.005859 
	C116.037544,145.005859 117.836594,144.984390 119.634949,145.010452 
	C123.060799,145.060120 126.924225,145.290375 127.543678,149.336365 
	C128.003967,152.342773 127.832413,157.088181 126.014069,158.413498 
	C123.335075,160.366119 118.948593,160.156357 115.265114,160.319351 
	C114.811455,160.339432 114.208984,156.996628 113.675308,154.765381 
M118.778297,148.287903 
	C118.312851,150.260742 117.511131,152.234940 117.519211,154.205841 
	C117.523460,155.242004 119.172035,157.243469 119.682755,157.123672 
	C121.229614,156.760818 123.466705,155.854187 123.845078,154.656982 
	C124.933350,151.213593 124.122032,148.282593 118.778297,148.287903 
z"/>
<path fill="#4268F3" opacity="1.000000" stroke="none" 
	d="
M146.541946,100.536194 
	C146.836243,100.062592 147.130524,99.588989 147.896988,99.259308 
	C149.952774,100.631775 151.536377,101.860313 153.119980,103.088852 
	C149.207794,107.093872 145.295609,111.098900 141.098434,115.395676 
	C141.098434,109.960915 140.859894,104.142090 141.274567,98.370193 
	C141.372116,97.012352 143.673767,95.812866 145.490936,94.373306 
	C146.424667,94.140671 146.828888,94.075256 147.233124,94.009842 
	C146.536667,95.557739 145.840225,97.105637 144.815384,99.201889 
	C143.905563,101.256012 143.324142,102.761780 142.742722,104.267540 
	C143.152451,104.463219 143.562195,104.658897 143.971924,104.854568 
	C144.828598,103.415108 145.685272,101.975647 146.541946,100.536194 
M141.079422,109.599876 
	C141.317047,109.925606 141.554672,110.251328 141.792297,110.577057 
	C141.726868,110.077118 141.661438,109.577171 141.079422,109.599876 
z"/>
<path fill="#EF5F76" opacity="1.000000" stroke="none" 
	d="
M109.731613,94.114365 
	C108.021248,87.793335 106.253487,81.487099 104.618744,75.146568 
	C103.318710,70.104240 104.257133,69.022881 109.634697,69.027794 
	C111.122841,69.029160 112.610909,69.094818 114.542999,69.576866 
	C114.988136,71.258911 114.989273,72.495056 114.990410,73.731216 
	C113.374367,73.903465 111.758324,74.075722 109.349068,74.332520 
	C110.732796,80.101196 112.043083,85.563705 113.102478,91.631104 
	C111.811592,92.862114 110.771606,93.488243 109.731613,94.114365 
z"/>
<path fill="#D45C81" opacity="1.000000" stroke="none" 
	d="
M219.517426,145.732224 
	C217.863388,147.920486 216.233231,149.753754 214.358932,151.861557 
	C216.530960,154.493286 218.610001,157.012360 221.070633,159.993774 
	C215.745407,162.116272 214.884552,156.439056 211.785995,155.374084 
	C211.540192,155.532654 211.185898,155.634628 211.067444,155.860367 
	C210.252716,157.413223 209.487305,158.991959 208.706024,160.562363 
	C208.101501,158.936401 207.113846,157.342697 206.973724,155.677658 
	C206.697845,152.399841 206.892471,149.082413 208.078720,144.805618 
	C209.334641,145.962418 210.590561,147.119232 211.568344,148.019836 
	C214.027283,147.204834 216.784286,146.291031 219.517426,145.732224 
z"/>
<path fill="#D45C81" opacity="1.000000" stroke="none" 
	d="
M175.158905,157.881866 
	C172.800323,158.862381 170.839340,159.837189 168.878342,160.811981 
	C168.586914,160.518661 168.295502,160.225327 168.004074,159.932007 
	C169.675079,155.494827 171.041489,150.907425 173.128525,146.675415 
	C174.430969,144.034332 176.942307,144.020508 178.245743,146.948105 
	C180.112595,151.141190 181.575912,155.513931 183.727707,161.165741 
	C180.163956,159.731033 177.860214,158.803589 175.158905,157.881866 
z"/>
<path fill="#D45C81" opacity="1.000000" stroke="none" 
	d="
M151.968872,153.872528 
	C151.968872,150.796082 151.968872,148.187073 151.968872,145.686829 
	C161.110870,144.020081 164.644852,145.191315 165.124420,149.764252 
	C165.612915,154.422363 163.824249,155.862122 156.749863,156.280670 
	C156.540771,156.685562 156.342102,157.291061 155.966293,157.752258 
	C155.171692,158.727448 154.284546,159.627243 153.435364,160.557968 
	C152.948151,159.480438 152.306290,158.441895 152.021683,157.313278 
	C151.785629,156.377274 151.970474,155.335114 151.968872,153.872528 
M156.784897,152.818558 
	C158.260971,152.056412 159.737045,151.294281 161.213104,150.532135 
	C160.339874,149.748138 159.534729,148.397858 158.581009,148.283157 
	C155.332809,147.892532 155.832596,150.215332 156.784897,152.818558 
z"/>
<path fill="#975FAC" opacity="1.000000" stroke="none" 
	d="
M142.952850,69.968796 
	C144.780975,69.938438 146.619171,70.019295 148.435165,69.854904 
	C152.382050,69.497612 154.765076,70.886299 155.425278,75.079750 
	C155.583145,76.082497 157.110931,76.869576 158.560577,77.935287 
	C160.305573,79.373207 161.498611,80.631683 162.691666,81.890152 
	C161.329666,82.855804 159.967667,83.821449 158.122833,84.629135 
	C156.230804,83.333893 154.821655,82.196625 153.412491,81.059357 
	C153.167923,74.169571 152.669342,73.777939 143.405792,73.118546 
	C142.960220,71.783562 142.956543,70.876175 142.952850,69.968796 
z"/>
<path fill="#F75E6F" opacity="1.000000" stroke="none" 
	d="
M178.933472,73.964714 
	C182.417725,70.033966 185.901978,66.103218 189.879868,61.615582 
	C190.273300,67.683990 190.539047,73.250648 187.024384,78.630112 
	C184.000107,77.180107 181.466782,75.572411 178.933472,73.964714 
z"/>
<path fill="#E45E7B" opacity="1.000000" stroke="none" 
	d="
M109.751945,94.524467 
	C110.771606,93.488243 111.811592,92.862114 113.143188,92.013664 
	C114.787163,97.223236 116.139534,102.655136 117.236649,108.611359 
	C115.998909,109.753685 115.016418,110.371689 114.033928,110.989685 
	C112.613380,105.637978 111.192825,100.286278 109.751945,94.524467 
z"/>
<path fill="#8667C7" opacity="1.000000" stroke="none" 
	d="
M170.242798,94.577148 
	C168.932785,94.890060 167.622772,95.202972 165.739273,95.757187 
	C162.011002,94.272957 158.856216,92.547432 155.701431,90.821899 
	C157.483246,89.252785 159.265076,87.683670 161.647919,86.197235 
	C164.913559,89.045662 167.578171,91.811401 170.242798,94.577148 
z"/>
<path fill="#4D67E8" opacity="1.000000" stroke="none" 
	d="
M185.004822,119.328369 
	C186.903656,118.432426 188.802475,117.536484 191.722321,116.158806 
	C188.170151,115.186768 185.604736,114.484749 183.039322,113.782730 
	C183.096634,113.405449 183.153946,113.028160 183.211258,112.650879 
	C188.067749,113.401199 192.924240,114.151520 197.780716,114.901840 
	C197.849426,115.449562 197.918121,115.997284 197.986832,116.544998 
	C193.891083,118.297523 189.795319,120.050041 185.342651,121.529915 
	C184.992111,120.614296 184.998474,119.971336 185.004822,119.328369 
z"/>
<path fill="#AB60A1" opacity="1.000000" stroke="none" 
	d="
M177.320328,86.925087 
	C178.205673,87.496620 179.091019,88.068146 180.618652,89.054314 
	C178.328384,90.579422 176.529480,91.777313 174.264984,92.715065 
	C171.164703,89.257187 168.529999,86.059441 165.895294,82.861694 
	C166.959244,82.173866 168.023209,81.486031 169.601410,80.991928 
	C172.517212,83.098801 174.918777,85.011940 177.320328,86.925087 
z"/>
<path fill="#B0598F" opacity="1.000000" stroke="none" 
	d="
M142.517731,69.894875 
	C142.956543,70.876175 142.960220,71.783562 142.959976,73.031006 
	C138.253510,73.509857 133.550964,73.648643 128.396881,73.377182 
	C127.931160,71.863953 127.916969,70.760963 127.902771,69.657974 
	C132.629395,69.712303 137.356003,69.766632 142.517731,69.894875 
z"/>
<path fill="#D45C81" opacity="1.000000" stroke="none" 
	d="
M114.022064,111.392548 
	C115.016418,110.371689 115.998909,109.753685 117.285538,108.964615 
	C118.638779,112.194305 119.687881,115.595070 120.929871,119.708046 
	C121.079689,121.551300 121.036613,122.682343 120.993538,123.813377 
	C117.247177,123.665802 116.167473,121.078171 115.543182,117.975060 
	C115.125008,115.896500 114.527473,113.854019 114.022064,111.392548 
z"/>
<path fill="#D66189" opacity="1.000000" stroke="none" 
	d="
M127.457001,69.555397 
	C127.916969,70.760963 127.931160,71.863953 127.931351,73.298767 
	C123.913445,73.709183 119.909546,73.787773 115.448029,73.798782 
	C114.989273,72.495056 114.988136,71.258911 114.986694,69.651962 
	C118.994675,69.338387 123.002953,69.395607 127.457001,69.555397 
z"/>
<path fill="#D15B80" opacity="1.000000" stroke="none" 
	d="
M88.518631,159.978424 
	C87.450500,160.288544 85.948837,160.303070 85.946892,160.255859 
	C85.746231,155.380386 85.639069,150.500168 85.661255,145.620865 
	C85.661896,145.479370 87.399620,144.971191 87.803688,145.292526 
	C88.434479,145.794174 88.925873,146.856262 88.936142,147.687561 
	C88.985390,151.675140 88.853081,155.664978 88.518631,159.978424 
z"/>
<path fill="#975FAC" opacity="1.000000" stroke="none" 
	d="
M165.597794,82.992355 
	C168.529999,86.059441 171.164703,89.257187 173.921967,92.779144 
	C173.006744,93.563301 171.968979,94.023239 170.587006,94.530159 
	C167.578171,91.811401 164.913559,89.045662 161.948792,86.086746 
	C162.865875,84.970070 164.083084,84.046547 165.597794,82.992355 
z"/>
<path fill="#D66189" opacity="1.000000" stroke="none" 
	d="
M184.191544,83.096832 
	C182.695267,83.988846 181.198975,84.880852 179.243591,85.493538 
	C176.711731,83.065285 174.638962,80.916367 172.566208,78.767456 
	C173.768890,77.810051 174.971573,76.852638 176.680389,76.063103 
	C179.521515,78.519600 181.856522,80.808220 184.191544,83.096832 
z"/>
<path fill="#873A67" opacity="1.000000" stroke="none" 
	d="
M184.796295,171.292618 
	C184.871414,173.677170 184.871414,175.733932 184.871414,179.312607 
	C181.942963,175.298996 179.755630,172.919907 176.646820,178.370117 
	C176.646820,175.470718 176.646820,173.763489 176.646820,172.950958 
	C179.483047,172.253296 182.102097,171.609055 184.796295,171.292618 
z"/>
<path fill="#E45E7B" opacity="1.000000" stroke="none" 
	d="
M184.496933,82.973740 
	C181.856522,80.808220 179.521515,78.519600 176.985504,75.934258 
	C177.321075,75.130722 177.857681,74.623901 178.663879,74.040894 
	C181.466782,75.572411 184.000107,77.180107 186.846786,78.946274 
	C186.374222,80.353386 185.588272,81.602020 184.496933,82.973740 
z"/>
<path fill="#975FAC" opacity="1.000000" stroke="none" 
	d="
M155.974182,132.126343 
	C152.880875,131.446701 149.787582,130.767059 146.339539,129.579987 
	C145.982742,128.066345 145.980682,127.060135 145.978622,126.053925 
	C149.130905,126.870049 152.283188,127.686172 155.730469,129.085373 
	C156.008362,130.487747 155.991272,131.307053 155.974182,132.126343 
z"/>
<path fill="#873A67" opacity="1.000000" stroke="none" 
	d="
M211.366364,170.455536 
	C210.606323,171.842453 209.744919,173.042557 208.833328,174.203232 
	C207.893585,175.399796 206.904968,176.557983 204.943329,177.791809 
	C205.254471,175.103607 205.395538,172.368362 206.108139,169.791153 
	C206.190277,169.494034 209.454224,170.076675 211.366364,170.455536 
z"/>
<path fill="#6F61C9" opacity="1.000000" stroke="none" 
	d="
M155.435272,90.937424 
	C158.856216,92.547432 162.011002,94.272957 165.542114,96.033844 
	C164.184067,97.385101 162.449692,98.701004 160.242630,99.641937 
	C157.710953,97.082626 155.651947,94.898293 153.592926,92.713959 
	C154.118317,92.160286 154.643723,91.606621 155.435272,90.937424 
z"/>
<path fill="#8667C7" opacity="1.000000" stroke="none" 
	d="
M153.120438,81.254013 
	C154.821655,82.196625 156.230804,83.333893 157.819473,84.727974 
	C156.240295,86.244560 154.481613,87.504333 152.171143,88.707932 
	C151.031631,88.008110 150.443863,87.364471 149.856110,86.720825 
	C150.846863,84.963440 151.837631,83.206055 153.120438,81.254013 
z"/>
<path fill="#6F61C9" opacity="1.000000" stroke="none" 
	d="
M165.955902,126.829590 
	C169.321091,125.447197 172.686264,124.064804 176.463623,123.037582 
	C176.931961,123.993591 176.988129,124.594421 177.044296,125.195251 
	C173.595291,126.711189 170.146271,128.227142 166.340866,129.421417 
	C165.974945,128.343033 165.965424,127.586311 165.955902,126.829590 
z"/>
<path fill="#4D67E8" opacity="1.000000" stroke="none" 
	d="
M153.441681,103.032570 
	C151.536377,101.860313 149.952774,100.631775 148.155167,99.147171 
	C149.010681,97.595772 150.080185,96.300438 151.634064,95.131577 
	C153.799423,97.217293 155.480408,99.176529 157.161392,101.135757 
	C156.028717,101.749260 154.896057,102.362778 153.441681,103.032570 
z"/>
<path fill="#AB60A1" opacity="1.000000" stroke="none" 
	d="
M145.639679,125.901001 
	C145.980682,127.060135 145.982742,128.066345 145.978760,129.449692 
	C143.139435,129.179962 140.306122,128.533096 137.180481,127.287659 
	C136.914612,125.793541 136.941101,124.897987 136.967590,124.002441 
	C139.745300,124.584312 142.523010,125.166191 145.639679,125.901001 
z"/>
<path fill="#8667C7" opacity="1.000000" stroke="none" 
	d="
M165.571350,126.886467 
	C165.965424,127.586311 165.974945,128.343033 165.983978,129.477936 
	C162.852890,130.733719 159.722305,131.611313 156.282959,132.307632 
	C155.991272,131.307053 156.008362,130.487747 156.039886,129.259003 
	C159.098465,128.214142 162.142624,127.578743 165.571350,126.886467 
z"/>
<path fill="#6F61C9" opacity="1.000000" stroke="none" 
	d="
M161.604309,111.325958 
	C161.134537,110.945801 160.846680,110.114708 160.906219,110.089035 
	C165.887177,107.940666 170.612579,109.201157 176.501175,111.250992 
	C170.828857,111.250992 166.388626,111.250992 161.604309,111.325958 
z"/>
<path fill="#AB60A1" opacity="1.000000" stroke="none" 
	d="
M163.009171,81.758514 
	C161.498611,80.631683 160.305573,79.373207 158.927261,77.831894 
	C160.954666,76.918373 163.167313,76.287682 165.898773,75.978935 
	C167.062698,76.912178 167.707840,77.523468 168.352966,78.134766 
	C166.677536,79.298798 165.002106,80.462830 163.009171,81.758514 
z"/>
<path fill="#C36195" opacity="1.000000" stroke="none" 
	d="
M172.289124,78.841980 
	C174.638962,80.916367 176.711731,83.065285 178.911469,85.522202 
	C178.528778,86.024139 178.019089,86.218086 177.414871,86.668556 
	C174.918777,85.011940 172.517212,83.098801 169.905685,80.882408 
	C170.467834,80.024940 171.239944,79.470726 172.289124,78.841980 
z"/>
<path fill="#B0598F" opacity="1.000000" stroke="none" 
	d="
M128.409576,84.048218 
	C127.723213,82.177673 127.347969,80.179428 126.945496,77.799561 
	C129.663757,77.256264 132.409241,77.094582 136.234772,76.869308 
	C133.236389,79.682976 130.978531,81.801750 128.409576,84.048218 
z"/>
<path fill="#CD597F" opacity="1.000000" stroke="none" 
	d="
M168.667389,78.038574 
	C167.707840,77.523468 167.062698,76.912178 166.279663,76.071365 
	C168.765274,74.192711 171.388794,72.543571 174.012314,70.894424 
	C174.450180,71.500885 174.888062,72.107353 175.325928,72.713814 
	C173.211227,74.456673 171.096512,76.199532 168.667389,78.038574 
z"/>
<path fill="#6467DB" opacity="1.000000" stroke="none" 
	d="
M149.483185,86.766785 
	C150.443863,87.364471 151.031631,88.008110 151.876038,88.856110 
	C150.760025,90.675323 149.387375,92.290176 147.623917,93.957443 
	C146.828888,94.075256 146.424667,94.140671 145.899612,94.224670 
	C143.488525,91.189842 144.524948,88.878235 149.483185,86.766785 
z"/>
<path fill="#C36195" opacity="1.000000" stroke="none" 
	d="
M136.597137,123.946899 
	C136.941101,124.897987 136.914612,125.793541 136.863251,127.136238 
	C134.127991,126.973679 131.417603,126.363968 128.343506,125.171463 
	C128.009659,123.536583 128.039551,122.484505 128.069458,121.432419 
	C130.788513,122.252068 133.507599,123.071709 136.597137,123.946899 
z"/>
<path fill="#6467DB" opacity="1.000000" stroke="none" 
	d="
M157.475281,101.102692 
	C155.480408,99.176529 153.799423,97.217293 151.904755,94.970535 
	C152.164871,94.119057 152.638687,93.555092 153.352707,92.852539 
	C155.651947,94.898293 157.710953,97.082626 159.878357,99.584984 
	C159.254242,100.291878 158.521713,100.680748 157.475281,101.102692 
z"/>
<path fill="#CD597F" opacity="1.000000" stroke="none" 
	d="
M127.758987,121.285202 
	C128.039551,122.484505 128.009659,123.536583 127.972076,124.981476 
	C125.868935,124.931290 123.773483,124.488281 121.335785,123.929321 
	C121.036613,122.682343 121.079689,121.551300 121.143295,119.996216 
	C123.258720,120.094109 125.353615,120.616051 127.758987,121.285202 
z"/>
<path fill="#6467DB" opacity="1.000000" stroke="none" 
	d="
M177.409943,125.129684 
	C176.988129,124.594421 176.931961,123.993591 176.837250,122.941864 
	C179.310226,121.493408 181.821777,120.495857 184.669067,119.413338 
	C184.998474,119.971336 184.992111,120.614296 184.982178,121.578796 
	C182.577606,122.954926 180.176590,124.009514 177.409943,125.129684 
z"/>
<path fill="#38174E" opacity="1.000000" stroke="none" 
	d="
M110.168892,172.339325 
	C109.598381,171.668747 109.189934,171.211212 108.781479,170.753662 
	C109.137711,170.410599 109.493935,170.067520 109.850166,169.724442 
	C111.152946,171.050491 112.455727,172.376526 113.758507,173.702576 
	C113.281776,174.148621 112.805046,174.594681 112.328316,175.040726 
	C111.662529,174.211273 110.996742,173.381821 110.168892,172.339325 
z"/>
<path fill="#38174E" opacity="1.000000" stroke="none" 
	d="
M104.552330,172.107849 
	C104.289749,172.352844 104.046722,172.465500 103.803696,172.578156 
	C103.832535,172.298203 103.861374,172.018234 103.890221,171.738281 
	C104.117447,171.817352 104.344666,171.896423 104.552330,172.107849 
z"/>
<path fill="#38174E" opacity="1.000000" stroke="none" 
	d="
M105.006760,177.514130 
	C104.992599,177.528778 105.020912,177.499481 105.006760,177.514130 
z"/>
<path fill="#38174E" opacity="1.000000" stroke="none" 
	d="
M108.012451,177.491119 
	C108.020775,177.518112 108.004135,177.464142 108.012451,177.491119 
z"/>
<path fill="#38174E" opacity="1.000000" stroke="none" 
	d="
M110.506371,178.489487 
	C110.516197,178.515045 110.496544,178.463928 110.506371,178.489487 
z"/>
<path fill="#38174E" opacity="1.000000" stroke="none" 
	d="
M119.180771,148.238495 
	C124.122032,148.282593 124.933350,151.213593 123.845078,154.656982 
	C123.466705,155.854187 121.229614,156.760818 119.682755,157.123672 
	C119.172035,157.243469 117.523460,155.242004 117.519211,154.205841 
	C117.511131,152.234940 118.312851,150.260742 119.180771,148.238495 
z"/>
<path fill="#2B114A" opacity="1.000000" stroke="none" 
	d="
M146.160980,100.223557 
	C145.685272,101.975647 144.828598,103.415108 143.971924,104.854568 
	C143.562195,104.658897 143.152451,104.463219 142.742722,104.267540 
	C143.324142,102.761780 143.905563,101.256012 144.751465,99.519287 
	C145.270630,99.495857 145.525330,99.703392 146.160980,100.223557 
z"/>
<path fill="#2B114A" opacity="1.000000" stroke="none" 
	d="
M141.337708,109.338554 
	C141.661438,109.577171 141.726868,110.077118 141.792297,110.577057 
	C141.554672,110.251328 141.317047,109.925606 141.337708,109.338554 
z"/>
<path fill="#38174E" opacity="1.000000" stroke="none" 
	d="
M156.468781,152.535370 
	C155.832596,150.215332 155.332809,147.892532 158.581009,148.283157 
	C159.534729,148.397858 160.339874,149.748138 161.213104,150.532135 
	C159.737045,151.294281 158.260971,152.056412 156.468781,152.535370 
z"/>
</svg>